<svg width="20" height="20" viewBox="0 0 20 20" fill="none" xmlns="http://www.w3.org/2000/svg">
<path d="M12.8429 1.03526C13.1238 0.970704 13.4178 0.995206 13.6841 1.10536C13.9504 1.21552 14.1758 1.40587 14.329 1.64998L15.7081 3.85216C15.8193 4.02953 15.9692 4.17944 16.1466 4.29066L18.3486 5.66997C18.5932 5.82307 18.784 6.04862 18.8944 6.31524C19.0048 6.58187 19.0294 6.87628 18.9646 7.15751L18.3819 9.68856C18.3349 9.89312 18.3349 10.1057 18.3819 10.3102L18.9646 12.8427C19.0287 13.1235 19.0039 13.4173 18.8935 13.6833C18.7831 13.9494 18.5927 14.1745 18.3486 14.3274L16.1466 15.7081C15.9692 15.8193 15.8193 15.9693 15.7081 16.1466L14.329 18.3488C14.176 18.5932 13.9506 18.7838 13.6843 18.8942C13.418 19.0046 13.1239 19.0293 12.8429 18.9649L10.3107 18.3821C10.1066 18.3353 9.89459 18.3353 9.6905 18.3821L7.15828 18.9649C6.87728 19.0293 6.58319 19.0046 6.31688 18.8942C6.05057 18.7838 5.82526 18.5932 5.67226 18.3488L4.29307 16.1466C4.18147 15.9691 4.03109 15.8192 3.85323 15.7081L1.65263 14.3288C1.40829 14.1758 1.21767 13.9505 1.10727 13.6841C0.996866 13.4178 0.972156 13.1237 1.03657 12.8427L1.61794 10.3102C1.66495 10.1057 1.66495 9.89312 1.61794 9.68856L1.03519 7.15751C0.970589 6.87614 0.995352 6.58162 1.10603 6.31498C1.2167 6.04835 1.40777 5.82287 1.65263 5.66997L3.85323 4.29066C4.03109 4.17961 4.18147 4.02969 4.29307 3.85216L5.67226 1.64998C5.82537 1.40614 6.05053 1.21596 6.31654 1.10582C6.58256 0.995674 6.87624 0.971015 7.1569 1.03526L9.6905 1.61668C9.89459 1.66348 10.1066 1.66348 10.3107 1.61668L12.8429 1.03526Z" stroke="#FCB71E" stroke-width="1.5"/>
<path d="M6.55194 10.7443L9.37553 13.4488L13.4479 6.55225" stroke="#FCB71E" stroke-width="1.5" stroke-linecap="round" stroke-linejoin="round"/>
</svg>
