<svg width="14" height="15" viewBox="0 0 14 15" fill="none" xmlns="http://www.w3.org/2000/svg">
<path d="M7 14.5C3.14 14.5 0 11.36 0 7.5C0 3.64 3.14 0.5 7 0.5C10.86 0.5 14 3.64 14 7.5C14 11.36 10.86 14.5 7 14.5ZM7 1.5C3.69 1.5 1 4.19 1 7.5C1 10.81 3.69 13.5 7 13.5C10.31 13.5 13 10.81 13 7.5C13 4.19 10.31 1.5 7 1.5Z" fill="white"/>
<path d="M7 11C6.72 11 6.5 10.78 6.5 10.5V4.5C6.5 4.22 6.72 4 7 4C7.28 4 7.5 4.22 7.5 4.5V10.5C7.5 10.78 7.28 11 7 11Z" fill="white"/>
<path d="M10 8H4C3.72 8 3.5 7.78 3.5 7.5C3.5 7.22 3.72 7 4 7H10C10.28 7 10.5 7.22 10.5 7.5C10.5 7.78 10.28 8 10 8Z" fill="white"/>
</svg>
