<svg width="17" height="18" viewBox="0 0 17 18" fill="none" xmlns="http://www.w3.org/2000/svg">
<path d="M5.23859 6.21505C5.37915 6.08852 5.56968 6.01745 5.76833 6.01745C5.96699 6.01745 6.15752 6.08852 6.29808 6.21505L8.76687 8.44021L11.2357 6.21505C11.3043 6.14866 11.3871 6.09542 11.479 6.05849C11.571 6.02156 11.6702 6.00171 11.7709 6.00011C11.8715 5.9985 11.9715 6.01519 12.0649 6.04917C12.1582 6.08316 12.243 6.13374 12.3142 6.1979C12.3854 6.26205 12.4415 6.33848 12.4792 6.42261C12.5169 6.50674 12.5354 6.59685 12.5336 6.68757C12.5319 6.7783 12.5098 6.86776 12.4688 6.95064C12.4279 7.03352 12.3688 7.10812 12.2952 7.16997L9.82636 9.39513L12.2952 11.6203C12.4276 11.7484 12.4997 11.9178 12.4962 12.0928C12.4928 12.2679 12.4141 12.4349 12.2768 12.5587C12.1394 12.6825 11.9541 12.7534 11.7599 12.7565C11.5657 12.7595 11.3778 12.6946 11.2357 12.5752L8.76687 10.3501L6.29808 12.5752C6.22945 12.6416 6.14669 12.6948 6.05473 12.7318C5.96278 12.7687 5.86351 12.7886 5.76286 12.7902C5.6622 12.7918 5.56222 12.7751 5.46888 12.7411C5.37554 12.7071 5.29075 12.6565 5.21956 12.5924C5.14838 12.5282 5.09226 12.4518 5.05456 12.3677C5.01686 12.2835 4.99834 12.1934 5.00012 12.1027C5.00189 12.012 5.02392 11.9225 5.0649 11.8396C5.10587 11.7567 5.16494 11.6821 5.23859 11.6203L7.70739 9.39513L5.23859 7.16997C5.09821 7.04329 5.01936 6.87156 5.01936 6.69251C5.01936 6.51346 5.09821 6.34173 5.23859 6.21505Z" fill="#FCB71E"/>
<path fill-rule="evenodd" clip-rule="evenodd" d="M3.79226 0.768559C6.90472 0.423501 10.0458 0.423501 13.1583 0.768559C14.9853 0.972559 16.4603 2.41156 16.6743 4.24856C17.0443 7.40556 17.0443 10.5946 16.6743 13.7516C16.4593 15.5886 14.9843 17.0266 13.1583 17.2316C10.0458 17.5766 6.90472 17.5766 3.79226 17.2316C1.96526 17.0266 0.490257 15.5886 0.276257 13.7516C-0.0920857 10.5946 -0.0920857 7.40552 0.276257 4.24856C0.490257 2.41156 1.96626 0.972559 3.79226 0.768559ZM12.9923 2.25856C9.99012 1.92579 6.9604 1.92579 3.95826 2.25856C3.4025 2.32021 2.88376 2.56743 2.48584 2.96028C2.08791 3.35312 1.83405 3.86864 1.76526 4.42356C1.40959 7.46453 1.40959 10.5366 1.76526 13.5776C1.83426 14.1323 2.08821 14.6476 2.48612 15.0402C2.88402 15.4329 3.40265 15.6799 3.95826 15.7416C6.93526 16.0736 10.0153 16.0736 12.9923 15.7416C13.5477 15.6797 14.0661 15.4326 14.4638 15.0399C14.8615 14.6473 15.1153 14.1321 15.1843 13.5776C15.5399 10.5366 15.5399 7.46453 15.1843 4.42356C15.1151 3.86915 14.8612 3.35421 14.4635 2.96178C14.0658 2.56936 13.5475 2.32234 12.9923 2.26056" fill="#FCB71E"/>
</svg>
