<svg width="17" height="17" viewBox="0 0 17 17" fill="none" xmlns="http://www.w3.org/2000/svg">
<path d="M16 8.5V2.66667C16 2.22464 15.8244 1.80072 15.5118 1.48816C15.1993 1.17559 14.7754 1 14.3333 1H2.66667C2.22464 1 1.80072 1.17559 1.48816 1.48816C1.17559 1.80072 1 2.22464 1 2.66667V11.8333M16 8.5V14.3333C16 14.7754 15.8244 15.1993 15.5118 15.5118C15.1993 15.8244 14.7754 16 14.3333 16H11.8333M16 8.5C10.6317 8.5 7.57917 10.1542 5.95417 12.0358M1 11.8333V14.3333C1 14.7754 1.17559 15.1993 1.48816 15.5118C1.80072 15.8244 2.22464 16 2.66667 16H11.8333M1 11.8333C2.16917 11.6383 4.03083 11.5892 5.95417 12.0358M11.8333 16C10.4133 13.6933 8.14417 12.5433 5.95417 12.0358M5.58333 4.33333C5.16667 4.33333 4.33333 4.58333 4.33333 5.58333C4.33333 6.58333 5.16667 6.83333 5.58333 6.83333C6 6.83333 6.83333 6.58333 6.83333 5.58333C6.83333 4.58333 6 4.33333 5.58333 4.33333Z" stroke="black" stroke-width="2" stroke-linecap="round" stroke-linejoin="round"/>
</svg>
