<svg width="34" height="39" viewBox="0 0 34 39" fill="none" xmlns="http://www.w3.org/2000/svg">
<path fill-rule="evenodd" clip-rule="evenodd" d="M0 3.9C0 2.86566 0.413323 1.87368 1.14904 1.14228C1.88476 0.410892 2.88261 0 3.92308 0L25.3875 0L34 8.5618V35.1C34 36.1343 33.5867 37.1263 32.851 37.8577C32.1152 38.5891 31.1174 39 30.0769 39H3.92308C2.88261 39 1.88476 38.5891 1.14904 37.8577C0.413323 37.1263 0 36.1343 0 35.1V3.9ZM7.84615 18.2H2.61538V15.6H10.4615V28.6H2.61538V23.4H5.23077V26H7.84615V18.2ZM13.0769 15.6H17C18.0405 15.6 19.0383 16.0109 19.774 16.7423C20.5098 17.4737 20.9231 18.4657 20.9231 19.5C20.9231 20.5343 20.5098 21.5263 19.774 22.2577C19.0383 22.9891 18.0405 23.4 17 23.4H15.6923V28.6H13.0769V15.6ZM23.5385 15.6H31.3846V18.2H26.1538V26H28.7692V22.1H31.3846V28.6H23.5385V15.6Z" fill="black"/>
</svg>
